<?xml version="1.0" standalone="no"?>
<!DOCTYPE svg PUBLIC "-//W3C//DTD SVG 20010904//EN"
 "http://www.w3.org/TR/2001/REC-SVG-20010904/DTD/svg10.dtd">
<svg version="1.0" xmlns="http://www.w3.org/2000/svg"
 width="275.000000pt" height="183.000000pt" viewBox="0 0 275.000000 183.000000"
 preserveAspectRatio="xMidYMid meet">

<g transform="translate(0.000000,183.000000) scale(0.100000,-0.100000)"
fill="#000000" stroke="none">
<path d="M0 1430 l0 -400 40 0 40 0 0 -40 0 -40 -40 0 -40 0 0 -414 0 -413
108 -22 c59 -12 128 -24 155 -26 26 -2 57 -10 70 -16 31 -17 245 -23 347 -10
134 17 299 47 370 69 36 11 103 30 150 42 47 12 99 26 115 31 17 5 84 23 150
40 66 18 190 52 275 76 120 34 257 61 318 63 2 0 0 5 -3 10 -3 6 -23 10 -43
11 -20 0 -46 4 -57 8 -17 7 -16 9 12 15 27 6 32 12 31 32 -1 13 -7 24 -13 25
-5 0 -19 2 -30 4 -54 9 -347 26 -352 21 -4 -3 1 -6 10 -6 11 0 17 -8 17 -22 0
-12 10 -32 23 -46 22 -23 22 -24 2 -39 -19 -14 -19 -14 5 -11 18 2 24 8 22 21
-3 16 1 17 20 11 13 -5 50 -8 83 -7 33 0 45 -1 28 -4 -20 -2 -33 -10 -33 -18
0 -9 -6 -12 -16 -8 -9 3 -19 1 -23 -5 -7 -12 -114 -41 -176 -48 -22 -3 -50
-10 -62 -16 -12 -6 -31 -8 -42 -5 -12 3 -21 2 -21 -3 0 -8 -40 -22 -71 -25 -8
-1 -39 -10 -68 -20 -39 -13 -56 -14 -64 -6 -17 17 -55 13 -73 -8 -12 -14 -26
-18 -53 -14 -27 4 -41 0 -58 -16 -12 -11 -40 -24 -63 -27 -23 -4 -57 -12 -77
-19 -29 -10 -44 -10 -81 1 -71 22 -82 38 -106 155 -2 8 -6 21 -9 29 -18 49
-25 80 -17 80 5 0 31 -5 58 -11 29 -7 65 -9 88 -4 l39 8 -45 9 c-25 4 -58 6
-75 3 -26 -5 -27 -4 -11 6 14 9 40 9 108 -1 50 -7 94 -8 98 -4 5 5 -3 9 -18
10 -35 1 -262 40 -284 49 -28 11 -21 20 17 22 19 2 35 0 35 -5 0 -4 10 -8 23
-9 72 -8 108 -13 157 -22 40 -8 62 -7 82 1 24 11 25 13 10 25 -16 11 -16 12 1
13 10 0 16 4 12 9 -3 6 7 8 22 6 16 -2 34 -4 41 -4 9 -1 10 -6 2 -20 -13 -25
-13 -42 1 -18 5 9 15 17 21 17 7 0 6 -5 -2 -15 -15 -18 0 -20 20 -2 8 6 6 2
-3 -10 -11 -12 -14 -24 -9 -27 10 -6 241 30 250 39 3 3 2 5 -3 5 -39 0 -213
35 -225 45 -18 16 -60 22 -77 12 -14 -9 -281 29 -325 45 -16 6 -28 18 -28 27
0 9 -7 27 -16 39 -21 30 -54 149 -48 170 5 13 4 14 -4 4 -7 -11 -12 -7 -20 17
-14 40 -20 39 -17 -1 2 -18 4 -33 5 -33 1 0 2 -15 3 -34 2 -28 -2 -35 -21 -37
-15 -3 -24 2 -28 14 -3 9 -13 33 -22 52 l-16 35 -7 -30 c-7 -27 -8 -26 -5 10
1 22 -1 51 -5 65 -7 24 -7 24 -8 3 -1 -13 -6 -23 -12 -23 -7 0 -8 16 -3 48 8
58 -11 48 -24 -13 l-9 -40 -14 29 c-11 23 -11 30 -1 34 14 4 16 38 3 46 -5 3
-9 22 -8 42 1 20 3 32 5 25 2 -6 7 -11 12 -11 5 0 1 18 -7 40 -9 23 -23 40
-32 40 -13 0 -14 2 -2 9 12 8 9 23 -17 88 -18 43 -35 93 -38 111 -4 18 -10 32
-15 32 -5 0 -9 5 -9 11 0 6 -22 68 -49 138 -27 69 -66 172 -88 228 l-38 103
-62 0 -63 0 0 -400z m354 -245 c-4 -8 -8 -15 -10 -15 -2 0 -4 7 -4 15 0 8 4
15 10 15 5 0 7 -7 4 -15z m-27 -47 c-3 -8 -6 -5 -6 6 -1 11 2 17 5 13 3 -3 4
-12 1 -19z m33 -3 c0 -15 -6 -25 -14 -25 -11 0 -12 5 -3 25 15 31 17 31 17 0z
m-252 -13 c2 -7 -3 -12 -12 -12 -9 0 -16 7 -16 16 0 17 22 14 28 -4z m508
-459 c20 -26 17 -35 -6 -21 -11 7 -20 18 -20 25 0 18 10 16 26 -4z m351 -179
c-3 -3 -12 -4 -19 -1 -8 3 -5 6 6 6 11 1 17 -2 13 -5z m-218 -40 c2 -2 -14 -4
-37 -4 -22 0 -44 5 -47 10 -6 10 73 3 84 -6z m1183 -11 c-6 -2 -10 -8 -8 -11
2 -4 -15 -8 -37 -9 -41 -1 -41 -1 -9 7 18 4 36 10 39 14 4 3 11 6 17 5 6 0 5
-3 -2 -6z"/>
<path d="M1411 1765 c-13 -40 -46 -100 -86 -157 -36 -51 -74 -112 -84 -134
-14 -31 -28 -45 -53 -53 -40 -13 -72 -66 -57 -94 11 -19 -9 -57 -30 -57 -8 0
-29 -11 -48 -26 -43 -32 -98 -55 -117 -48 -29 11 -103 -49 -86 -71 4 -5 6 -23
4 -40 -4 -25 -2 -27 7 -12 5 9 15 15 20 11 7 -4 8 7 4 29 -4 19 -3 37 2 40 16
9 362 -19 376 -32 8 -6 29 -53 47 -104 42 -120 41 -119 64 -102 16 12 17 18 7
46 -15 43 -7 49 9 7 l13 -33 10 44 c8 31 7 56 -2 92 -11 40 -11 56 0 81 l13
31 130 -6 c72 -3 124 -3 115 -1 -9 3 -23 20 -32 39 l-17 35 40 0 c22 0 40 -4
40 -10 0 -5 -5 -10 -11 -10 -8 0 -8 -5 1 -15 7 -8 9 -15 6 -15 -4 0 0 -12 8
-27 12 -22 105 -303 133 -406 5 -15 9 -14 34 11 l28 27 -70 220 c-39 121 -74
223 -78 227 -9 10 -450 32 -459 24 -4 -4 13 -64 36 -133 23 -69 41 -128 39
-130 -6 -6 -87 234 -87 258 0 21 1 21 223 14 244 -8 258 -11 275 -67 15 -48
122 -381 127 -396 4 -10 10 -9 29 3 l24 16 -35 110 c-19 61 -32 118 -28 126 5
14 22 15 119 9 l114 -7 54 44 c103 84 93 81 242 74 73 -3 137 -2 142 3 24 23
142 83 162 82 l22 -2 0 275 0 275 -659 0 -659 0 -21 -65z"/>
<path d="M568 1483 c6 -2 18 -2 25 0 6 3 1 5 -13 5 -14 0 -19 -2 -12 -5z"/>
<path d="M2702 1204 c-37 -22 -41 -28 -30 -42 9 -11 9 -14 1 -9 -11 7 -148 20
-183 18 -135 -9 -159 -14 -189 -41 -17 -16 -40 -31 -51 -35 -11 -4 -17 -11
-14 -17 5 -7 46 -9 120 -5 63 3 114 3 114 -1 -1 -19 -18 -32 -35 -26 -15 6
-17 4 -11 -12 5 -10 33 -104 63 -209 30 -104 59 -192 64 -196 6 -3 11 -10 10
-15 0 -5 14 -8 31 -6 18 2 28 0 24 -6 -3 -6 1 -13 10 -16 10 -4 13 -2 8 7 -4
6 10 -5 30 -27 20 -21 36 -44 36 -50 0 -12 36 -56 45 -56 3 0 5 134 5 298 l0
298 -67 0 c-38 1 -90 4 -117 7 -26 3 -59 2 -72 -3 -18 -7 -22 -6 -18 5 3 7 20
17 37 20 44 9 87 26 87 35 0 14 55 18 70 5 8 -7 30 -20 48 -29 l32 -17 0 76
c0 41 -1 75 -2 75 -2 0 -22 -12 -46 -26z"/>
<path d="M1450 1144 c0 -3 5 -14 10 -25 9 -16 7 -19 -14 -19 -23 0 -24 -2 -13
-29 8 -23 18 -30 49 -35 23 -4 48 -1 61 6 12 6 40 11 62 11 l40 -1 -35 8 c-31
6 -27 8 28 9 57 1 81 -10 50 -22 -8 -3 -4 -6 7 -8 11 -1 0 -5 -25 -9 l-45 -7
48 -1 c27 -1 47 -7 47 -13 0 -8 -15 -10 -48 -5 l-48 6 1 -57 c0 -64 7 -72 65
-71 32 0 33 1 10 8 -21 7 -18 8 19 9 34 1 42 -2 37 -14 -3 -8 0 -16 7 -16 7
-1 -1 -5 -18 -9 l-30 -8 28 -1 c15 0 27 -5 27 -10 0 -5 -21 -7 -47 -4 -33 3
-44 2 -34 -5 11 -8 9 -11 -10 -15 -23 -4 -23 -4 -1 -6 12 0 22 -5 22 -9 0 -4
-15 -6 -33 -4 -26 3 -34 0 -34 -12 0 -12 10 -16 39 -16 46 0 51 -17 6 -22 -23
-2 -32 -8 -30 -18 2 -8 4 -23 5 -32 1 -10 4 -18 7 -19 3 0 47 -6 98 -13 50 -6
92 -8 92 -3 0 20 -22 49 -29 38 -8 -13 -101 -4 -101 10 0 5 20 6 44 3 39 -6
45 -4 51 15 9 28 -105 371 -122 371 -7 0 -13 5 -13 11 0 5 5 7 11 3 7 -4 10
-1 7 7 -3 8 -26 17 -59 21 -70 8 -189 10 -189 2z m230 -208 c0 -2 -7 -6 -15
-10 -8 -3 -15 -1 -15 4 0 6 7 10 15 10 8 0 15 -2 15 -4z"/>
<path d="M897 1133 c-3 -5 -2 -15 4 -23 7 -13 9 -12 9 2 0 15 8 17 68 11 37
-3 68 -7 70 -8 2 -2 -5 -10 -14 -20 -14 -14 -15 -21 -5 -36 6 -11 9 -24 6 -29
-3 -4 30 -11 72 -15 43 -3 84 -7 92 -8 13 -2 20 -19 65 -140 l18 -49 19 31
c11 18 19 39 19 49 0 15 2 15 10 2 17 -26 11 -4 -25 102 -19 56 -41 105 -47
109 -7 4 -48 10 -92 13 -228 15 -264 17 -269 9z"/>
<path d="M1906 1072 c-6 -10 49 -200 63 -214 4 -4 17 -1 29 8 17 12 20 19 12
34 -16 30 -12 44 26 88 19 23 32 42 29 42 -4 0 3 9 16 20 l24 19 -51 1 c-28 0
-71 3 -96 6 -28 4 -48 2 -52 -4z"/>
<path d="M2186 1051 c-3 -5 8 -11 26 -15 l31 -6 -54 -51 c-38 -35 -47 -49 -31
-44 19 5 132 109 132 121 0 8 -99 4 -104 -5z"/>
<path d="M2350 1040 c0 -5 8 -10 19 -10 24 0 37 -17 46 -57 6 -30 4 -34 -22
-43 -36 -13 -74 -33 -70 -36 1 -2 18 0 37 4 65 14 75 7 94 -60 9 -33 19 -58
22 -55 12 12 -54 225 -77 248 -20 20 -49 25 -49 9z"/>
<path d="M420 1000 c0 -5 5 -10 11 -10 5 0 7 5 4 10 -3 6 -8 10 -11 10 -2 0
-4 -4 -4 -10z"/>
<path d="M1070 987 c0 -5 -4 -6 -9 -2 -5 3 -13 0 -17 -6 -4 -8 -3 -9 4 -5 10
6 17 -7 10 -17 -2 -2 3 -11 11 -20 11 -14 11 -17 0 -17 -12 0 -12 -2 0 -9 7
-5 10 -14 7 -20 -4 -6 -4 -11 1 -12 10 -1 51 -7 118 -18 39 -7 43 -9 20 -11
l-30 -3 35 -8 c26 -6 17 -7 -33 -4 -42 3 -65 1 -62 -5 7 -12 -25 -13 -41 -2
-6 4 -15 17 -19 30 -4 13 -9 22 -11 20 -8 -9 48 -158 58 -152 6 4 5 10 -3 15
-11 7 -11 9 -1 9 10 0 10 4 -2 16 -9 8 -16 21 -16 28 0 13 15 13 121 2 19 -1
25 2 22 11 -4 9 0 11 11 7 22 -8 20 8 -13 96 l-27 75 -67 5 c-37 3 -67 1 -67
-3z m57 -13 c24 -7 48 -55 39 -79 -14 -37 -86 9 -86 55 0 29 10 34 47 24z"/>
<path d="M1100 942 c0 -26 37 -59 51 -45 15 15 0 46 -16 33 -9 -8 -15 -8 -20
0 -3 5 -1 10 4 10 6 0 11 5 11 10 0 6 -7 10 -15 10 -8 0 -15 -8 -15 -18z"/>
<path d="M957 880 c5 -33 5 -34 -10 -15 -22 27 -22 4 -1 -58 14 -43 17 -45 39
-35 26 12 26 11 -13 98 -20 44 -21 44 -15 10z"/>
<path d="M2284 866 c-7 -7 -27 -25 -45 -39 -19 -15 -29 -27 -24 -27 6 1 30 18
55 40 25 22 41 39 35 39 -5 0 -15 -6 -21 -13z"/>
<path d="M994 857 c4 -11 9 -30 12 -43 3 -13 19 -30 34 -38 l28 -14 -16 44
c-11 29 -20 40 -26 34 -7 -7 -15 -3 -24 12 -9 16 -11 17 -8 5z"/>
<path d="M1643 863 c9 -2 23 -2 30 0 6 3 -1 5 -18 5 -16 0 -22 -2 -12 -5z"/>
<path d="M1628 843 c6 -2 18 -2 25 0 6 3 1 5 -13 5 -14 0 -19 -2 -12 -5z"/>
<path d="M2102 837 c-8 -9 -1 -43 24 -125 41 -127 25 -116 182 -130 61 -6 82
-5 82 4 0 13 -73 34 -119 34 -16 0 -33 5 -37 12 -5 8 6 9 41 5 39 -6 45 -5 36
6 -6 8 -7 17 -3 21 4 4 -9 5 -29 1 -31 -6 -39 -3 -56 19 -15 19 -23 22 -32 13
-8 -8 -16 -6 -33 10 -26 26 -18 58 12 48 14 -4 20 -2 20 9 0 8 -4 18 -10 21
-5 3 -10 1 -10 -4 0 -17 -25 -13 -43 7 -11 12 -13 22 -7 32 19 29 3 43 -18 17z
m118 -198 c0 -35 -22 -39 -44 -7 -19 26 -5 49 24 41 14 -4 20 -14 20 -34z"/>
<path d="M2180 646 c0 -9 7 -16 16 -16 9 0 14 5 12 12 -6 18 -28 21 -28 4z"/>
<path d="M755 810 c3 -5 8 -10 11 -10 2 0 4 5 4 10 0 6 -5 10 -11 10 -5 0 -7
-4 -4 -10z"/>
<path d="M2130 805 c0 -8 8 -15 18 -14 10 0 12 3 4 6 -6 2 -10 9 -6 14 3 5 0
9 -5 9 -6 0 -11 -7 -11 -15z"/>
<path d="M2025 793 c-16 -8 -31 -17 -32 -18 -2 -1 10 -39 25 -86 l29 -84 47
-3 c55 -4 54 -19 8 126 -14 45 -31 82 -37 82 -5 -1 -23 -8 -40 -17z"/>
<path d="M752 740 c0 -33 4 -40 20 -40 14 0 18 5 14 16 -3 9 -6 27 -6 40 0 14
-6 24 -14 24 -11 0 -15 -12 -14 -40z"/>
<path d="M944 758 c6 -20 -9 -25 -18 -5 -3 6 -2 -1 1 -18 12 -59 37 -105 52
-96 11 7 11 17 -3 57 -9 27 -21 56 -27 64 -9 13 -10 12 -5 -2z"/>
<path d="M2440 752 c-56 -18 -55 -17 -39 -39 18 -23 50 -26 64 -6 10 13 14 13
20 3 5 -8 4 -11 -2 -7 -6 4 -14 0 -17 -9 -8 -22 -9 -21 19 -28 16 -4 25 -13
25 -26 0 -10 5 -22 10 -25 6 -3 10 -3 10 2 0 10 -38 145 -42 148 -2 1 -23 -4
-48 -13z"/>
<path d="M1948 748 c-14 -12 -13 -19 6 -78 19 -58 24 -65 50 -68 24 -3 28 0
24 15 -42 146 -48 156 -80 131z"/>
<path d="M987 696 c14 -38 19 -43 35 -35 34 18 20 62 -24 73 l-27 6 16 -44z"/>
<path d="M1887 727 c-21 -9 -27 -16 -23 -32 3 -11 9 -30 12 -42 5 -17 1 -22
-18 -26 -13 -2 -5 -5 20 -6 24 0 52 -6 63 -11 10 -6 19 -7 19 -2 0 9 -41 133
-43 131 -1 -1 -15 -6 -30 -12z"/>
<path d="M2152 728 c6 -16 38 -23 38 -9 0 6 -7 7 -17 4 -11 -4 -14 -3 -9 5 4
7 2 12 -4 12 -7 0 -10 -6 -8 -12z"/>
<path d="M676 670 c8 -33 24 -50 18 -19 -2 13 -2 18 2 11 6 -13 24 -7 24 9 0
6 -4 7 -10 4 -5 -3 -10 0 -10 7 0 10 -2 10 -9 -1 -7 -11 -10 -11 -15 0 -3 8
-3 3 0 -11z"/>
<path d="M740 640 c0 -5 5 -10 10 -10 23 0 8 -19 -17 -22 -30 -4 113 -33 207
-43 43 -4 50 -3 31 5 -16 7 -22 16 -18 30 4 16 -1 21 -29 26 -21 4 -40 2 -48
-5 -16 -13 -89 -5 -81 9 5 9 -18 20 -41 20 -8 0 -14 -4 -14 -10z"/>
<path d="M1673 643 c9 -2 23 -2 30 0 6 3 -1 5 -18 5 -16 0 -22 -2 -12 -5z"/>
<path d="M1763 633 c9 -2 23 -2 30 0 6 3 -1 5 -18 5 -16 0 -22 -2 -12 -5z"/>
<path d="M2440 579 c0 -5 11 -9 25 -9 32 0 35 -1 63 -11 20 -8 23 -6 20 8 -3
14 -14 18 -56 20 -28 1 -52 -3 -52 -8z"/>
<path d="M2560 570 c13 -24 35 -27 26 -4 -3 9 -6 18 -6 20 0 2 -7 4 -15 4 -13
0 -14 -4 -5 -20z"/>
<path d="M1148 533 c6 -2 18 -2 25 0 6 3 1 5 -13 5 -14 0 -19 -2 -12 -5z"/>
<path d="M1218 523 c6 -2 18 -2 25 0 6 3 1 5 -13 5 -14 0 -19 -2 -12 -5z"/>
<path d="M1283 513 c9 -2 23 -2 30 0 6 3 -1 5 -18 5 -16 0 -22 -2 -12 -5z"/>
<path d="M1348 503 c6 -2 18 -2 25 0 6 3 1 5 -13 5 -14 0 -19 -2 -12 -5z"/>
<path d="M1065 410 c-28 -8 -27 -8 12 -7 24 1 48 -4 55 -11 9 -9 9 -12 0 -12
-7 0 -12 -4 -12 -10 0 -5 6 -10 13 -10 8 0 35 -11 61 -24 l48 -24 106 19 c59
10 113 19 120 19 6 0 12 4 12 9 0 8 -74 22 -140 26 -56 4 -191 21 -225 29 -11
2 -33 0 -50 -4z"/>
<path d="M750 392 c0 -6 -8 -13 -17 -16 -10 -2 3 -3 29 -2 47 2 81 16 40 16
-11 0 -27 3 -36 6 -9 3 -16 1 -16 -4z"/>
<path d="M958 393 c7 -3 16 -2 19 1 4 3 -2 6 -13 5 -11 0 -14 -3 -6 -6z"/>
<path d="M2260 370 c-8 -5 -10 -10 -5 -10 17 0 297 -40 328 -46 20 -4 27 -2
27 9 0 10 -12 15 -41 15 -23 1 -54 5 -68 11 -24 9 -174 31 -210 31 -9 0 -23
-5 -31 -10z"/>
<path d="M860 360 c-20 -6 -21 -8 -5 -8 11 0 31 4 45 8 20 6 21 8 5 8 -11 0
-31 -4 -45 -8z"/>
<path d="M2103 323 c-155 -49 -463 -150 -497 -163 l-29 -11 21 -19 c24 -23 21
-43 -11 -58 -21 -9 -20 -11 17 -27 86 -37 187 -45 563 -45 230 0 364 4 368 10
3 6 14 10 23 10 9 0 31 7 47 16 17 9 56 29 88 46 l57 29 0 103 c0 99 -1 104
-22 110 -46 12 -93 6 -105 -12 -11 -18 -16 -18 -95 -5 -45 7 -136 21 -200 32
l-118 18 -107 -34z m132 -83 c-3 -5 -12 -10 -18 -10 -7 0 -6 4 3 10 19 12 23
12 15 0z m-345 -91 c0 -6 8 -8 18 -5 9 3 28 -2 42 -10 16 -10 18 -13 5 -8 -11
4 -29 7 -40 8 -11 1 -29 7 -40 13 -18 11 -18 12 -2 13 9 0 17 -5 17 -11z m76
-87 c-6 -5 -68 24 -91 42 -11 9 6 4 37 -11 32 -15 56 -29 54 -31z"/>
<path d="M1188 303 c7 -3 16 -2 19 1 4 3 -2 6 -13 5 -11 0 -14 -3 -6 -6z"/>
</g>
</svg>
